<svg xmlns="http://www.w3.org/2000/svg" width="96" height="96" viewBox="0 0 96 96" fill="none">
  <defs>
    <linearGradient id="brainBg" x1="8" y1="8" x2="88" y2="88" gradientUnits="userSpaceOnUse">
      <stop stop-color="#10B981"/>
      <stop offset="1" stop-color="#06B6D4"/>
    </linearGradient>
  </defs>
  <rect x="8" y="8" width="80" height="80" rx="18" fill="url(#brainBg)"/>
  <path d="M36 31.5C36 27.9 38.9 25 42.5 25C44.5 25 46.3 25.9 47.5 27.3C48.7 25.9 50.5 25 52.5 25C56.1 25 59 27.9 59 31.5C61.8 32.4 64 35 64 38.2C64 42 60.9 45 57 45H38.9C35.1 45 32 42 32 38.2C32 35.2 34 32.7 36.7 31.7" stroke="white" stroke-width="3.4" stroke-linecap="round" stroke-linejoin="round"/>
  <path d="M47.5 28V45" stroke="white" stroke-width="3.2" stroke-linecap="round"/>
  <path d="M42.6 33.5H52.4" stroke="white" stroke-width="3.2" stroke-linecap="round"/>
  <path d="M40.8 45V52.2C40.8 56 43.9 59 47.6 59C51.3 59 54.4 56 54.4 52.2V45" stroke="white" stroke-width="3.2" stroke-linecap="round" stroke-linejoin="round"/>
  <path d="M45 59V67M50 59V67" stroke="white" stroke-width="3" stroke-linecap="round"/>
</svg>
