<svg xmlns="http://www.w3.org/2000/svg" width="1200" height="630" viewBox="0 0 1200 630">
  <defs>
    <linearGradient id="bg" x1="0%" y1="0%" x2="100%" y2="100%">
      <stop offset="0%" style="stop-color:#6366f1;stop-opacity:1" />
      <stop offset="50%" style="stop-color:#7c3aed;stop-opacity:1" />
      <stop offset="100%" style="stop-color:#a855f7;stop-opacity:1" />
    </linearGradient>
    <linearGradient id="accent" x1="0%" y1="0%" x2="100%" y2="0%">
      <stop offset="0%" style="stop-color:#f59e0b;stop-opacity:1" />
      <stop offset="100%" style="stop-color:#fbbf24;stop-opacity:1" />
    </linearGradient>
  </defs>
  <rect width="1200" height="630" fill="url(#bg)"/>
  <g opacity="0.08">
    <line x1="100" y1="0" x2="100" y2="630" stroke="#fff" stroke-width="1"/>
    <line x1="200" y1="0" x2="200" y2="630" stroke="#fff" stroke-width="1"/>
    <line x1="300" y1="0" x2="300" y2="630" stroke="#fff" stroke-width="1"/>
    <line x1="400" y1="0" x2="400" y2="630" stroke="#fff" stroke-width="1"/>
    <line x1="500" y1="0" x2="500" y2="630" stroke="#fff" stroke-width="1"/>
    <line x1="600" y1="0" x2="600" y2="630" stroke="#fff" stroke-width="1"/>
    <line x1="700" y1="0" x2="700" y2="630" stroke="#fff" stroke-width="1"/>
    <line x1="800" y1="0" x2="800" y2="630" stroke="#fff" stroke-width="1"/>
    <line x1="900" y1="0" x2="900" y2="630" stroke="#fff" stroke-width="1"/>
    <line x1="1000" y1="0" x2="1000" y2="630" stroke="#fff" stroke-width="1"/>
    <line x1="1100" y1="0" x2="1100" y2="630" stroke="#fff" stroke-width="1"/>
    <line x1="0" y1="100" x2="1200" y2="100" stroke="#fff" stroke-width="1"/>
    <line x1="0" y1="200" x2="1200" y2="200" stroke="#fff" stroke-width="1"/>
    <line x1="0" y1="300" x2="1200" y2="300" stroke="#fff" stroke-width="1"/>
    <line x1="0" y1="400" x2="1200" y2="400" stroke="#fff" stroke-width="1"/>
    <line x1="0" y1="500" x2="1200" y2="500" stroke="#fff" stroke-width="1"/>
  </g>
  <circle cx="200" cy="150" r="120" fill="#fff" opacity="0.06"/>
  <circle cx="900" cy="400" r="180" fill="#f59e0b" opacity="0.08"/>
  <circle cx="600" cy="315" r="80" fill="#fff" opacity="0.04"/>
  <text x="600" y="260" text-anchor="middle" font-family="system-ui,-apple-system,sans-serif" font-size="72" font-weight="700" fill="#ffffff" letter-spacing="-2">AI Tutor</text>
  <text x="600" y="330" text-anchor="middle" font-family="system-ui,-apple-system,sans-serif" font-size="28" font-weight="400" fill="rgba(255,255,255,0.8)">Build AI Skills and Public Proof</text>
  <rect x="520" y="360" width="160" height="4" rx="2" fill="url(#accent)"/>
  <rect x="340" y="400" width="120" height="36" rx="18" fill="rgba(255,255,255,0.15)"/>
  <text x="400" y="423" text-anchor="middle" font-family="system-ui" font-size="14" font-weight="600" fill="#fff">Website</text>
  <rect x="480" y="400" width="120" height="36" rx="18" fill="rgba(255,255,255,0.15)"/>
  <text x="540" y="423" text-anchor="middle" font-family="system-ui" font-size="14" font-weight="600" fill="#fff">Build Log</text>
  <rect x="620" y="400" width="120" height="36" rx="18" fill="rgba(255,255,255,0.15)"/>
  <text x="680" y="423" text-anchor="middle" font-family="system-ui" font-size="14" font-weight="600" fill="#fff">Skills</text>
  <rect x="760" y="400" width="120" height="36" rx="18" fill="rgba(245,158,11,0.4)"/>
  <text x="820" y="423" text-anchor="middle" font-family="system-ui" font-size="14" font-weight="600" fill="#fff">Verified</text>
</svg>
